<?xml version="1.0" standalone="no"?>
<!DOCTYPE svg PUBLIC "-//W3C//DTD SVG 20010904//EN"
 "http://www.w3.org/TR/2001/REC-SVG-20010904/DTD/svg10.dtd">
<svg version="1.0" xmlns="http://www.w3.org/2000/svg"
 width="1112.000000pt" height="1112.000000pt" viewBox="0 0 1112.000000 1112.000000"
 preserveAspectRatio="xMidYMid meet">
<metadata>
Created by potrace 1.14, written by Peter Selinger 2001-2017
</metadata>
<g transform="translate(0.000000,1112.000000) scale(0.100000,-0.100000)"
fill="#000000" stroke="none">
<path d="M5359 11116 c-2 -2 -43 -7 -91 -10 -48 -3 -93 -8 -100 -11 -7 -2 -38
-7 -68 -10 -30 -3 -66 -7 -80 -9 -121 -19 -369 -76 -450 -104 -30 -11 -58 -20
-62 -21 -21 -4 -41 -11 -138 -47 -58 -21 -125 -47 -150 -58 -25 -11 -47 -21
-50 -21 -22 -4 -264 -125 -361 -181 -453 -260 -862 -613 -1234 -1064 -38 -47
-73 -86 -77 -88 -5 -2 -8 -9 -8 -15 0 -7 -10 -23 -23 -37 -13 -14 -56 -72 -97
-130 -41 -58 -78 -106 -82 -108 -5 -2 -8 -8 -8 -12 0 -5 -24 -47 -53 -92 -84
-130 -147 -236 -147 -246 0 -6 -3 -12 -7 -14 -11 -4 -38 -55 -156 -293 -103
-206 -147 -300 -147 -310 0 -2 -11 -29 -25 -59 -14 -30 -25 -58 -25 -61 0 -4
-7 -21 -15 -38 -17 -37 -68 -176 -96 -262 -11 -33 -24 -67 -28 -75 -5 -9 -12
-31 -17 -50 -10 -42 -9 -41 -17 -60 -3 -8 -13 -42 -22 -75 -38 -135 -57 -185
-98 -256 -24 -40 -66 -112 -93 -159 -27 -47 -61 -107 -74 -135 -14 -27 -28
-52 -31 -55 -3 -3 -15 -27 -27 -53 -27 -58 -22 -90 15 -85 20 2 36 24 91 130
37 71 73 128 80 128 7 0 11 -3 9 -7 -3 -5 -8 -24 -11 -43 -10 -60 -17 -94 -21
-110 -3 -8 -7 -33 -10 -55 -4 -22 -8 -51 -11 -65 -2 -14 -7 -41 -10 -60 -2
-19 -9 -57 -14 -85 -10 -57 -19 -121 -34 -270 -3 -27 -8 -66 -11 -85 -36 -258
-46 -854 -20 -1195 19 -245 35 -408 49 -503 3 -18 8 -52 11 -75 22 -151 68
-387 101 -526 9 -36 18 -73 20 -83 2 -10 6 -26 8 -36 2 -9 9 -37 16 -62 7 -25
14 -52 16 -60 10 -40 25 -93 48 -170 15 -47 28 -92 30 -100 9 -33 86 -251 126
-355 23 -60 44 -120 47 -133 3 -12 9 -22 14 -22 5 0 9 -6 9 -14 0 -8 18 -54
40 -101 22 -47 40 -88 40 -91 0 -11 166 -339 173 -342 4 -2 7 -8 7 -13 0 -8
75 -143 128 -227 12 -20 28 -48 35 -62 6 -14 17 -29 24 -33 7 -4 13 -12 13
-18 0 -18 257 -388 312 -449 8 -8 34 -40 58 -70 25 -30 47 -57 50 -60 3 -3 32
-36 65 -75 66 -78 310 -324 395 -399 30 -27 69 -61 85 -76 169 -154 561 -417
790 -530 28 -14 52 -28 53 -32 2 -5 11 -8 21 -8 9 0 21 -4 26 -9 23 -22 475
-198 475 -185 0 2 9 0 21 -6 11 -6 28 -13 37 -15 9 -3 60 -16 112 -29 52 -14
111 -28 130 -31 19 -3 42 -8 50 -10 8 -2 29 -7 45 -10 17 -3 41 -7 55 -9 267
-49 647 -61 920 -31 62 7 194 25 220 30 13 3 40 7 60 10 46 7 315 71 315 75 0
1 7 3 15 5 71 14 256 79 370 128 175 76 226 100 232 110 4 7 8 8 8 4 0 -15
273 141 430 246 104 69 228 161 305 225 22 18 45 36 50 40 42 31 212 188 315
291 211 212 362 391 530 631 33 47 63 90 67 95 63 83 313 503 313 525 0 4 7
13 15 20 8 6 14 15 13 18 -1 4 26 62 60 129 34 68 62 129 62 137 0 7 6 19 13
25 8 6 20 30 27 53 8 24 17 48 21 54 26 34 241 625 255 700 2 12 10 40 18 63
9 22 13 41 10 41 -2 0 3 16 11 37 8 20 13 38 10 41 -3 3 0 11 6 19 6 7 9 13 6
13 -3 0 -1 15 5 33 5 17 14 48 18 67 5 19 11 44 13 55 36 140 101 483 121 640
12 98 19 152 22 185 11 127 14 160 19 200 3 25 8 81 11 125 8 101 13 827 6
839 -3 6 -7 42 -8 80 -3 65 -9 149 -19 236 -21 198 -24 223 -29 248 -3 13 -8
51 -11 85 -4 34 -8 64 -10 68 -2 3 -6 19 -9 35 -36 222 -34 249 11 156 17 -34
35 -68 41 -75 6 -6 11 -15 11 -20 0 -4 15 -38 32 -75 17 -37 49 -110 71 -162
22 -52 46 -108 53 -125 40 -93 158 -432 169 -485 1 -8 12 -46 24 -85 17 -55
65 -243 76 -300 2 -5 8 -37 15 -70 18 -80 16 -70 31 -158 15 -92 36 -125 67
-109 16 9 20 19 17 52 -2 23 -6 51 -10 63 -4 12 -8 31 -10 42 -2 11 -10 56
-19 100 -9 44 -19 94 -22 110 -3 17 -9 38 -14 48 -5 9 -8 17 -5 17 6 0 -56
238 -95 362 -18 57 -34 108 -35 113 -5 26 -114 316 -128 344 -9 17 -16 32 -15
33 1 2 -6 20 -15 42 -9 21 -16 40 -16 41 0 14 -201 425 -240 490 -75 127 -98
185 -150 380 -30 114 -61 221 -80 275 -5 14 -27 79 -50 145 -23 66 -45 129
-50 140 -5 11 -19 45 -30 75 -11 30 -25 64 -30 75 -5 11 -30 70 -55 130 -80
188 -239 500 -342 670 -95 159 -138 225 -145 225 -4 0 -8 5 -8 11 0 23 -221
323 -346 469 -240 281 -473 503 -744 710 -47 36 -87 67 -90 70 -3 3 -12 10
-21 15 -9 6 -62 40 -118 78 -56 37 -106 67 -111 67 -6 0 -10 5 -10 10 0 6 -5
10 -10 10 -6 0 -28 11 -50 25 -110 69 -479 246 -572 274 -18 5 -63 21 -101 35
-37 14 -70 25 -72 25 -3 0 -42 11 -88 25 -45 13 -95 27 -112 32 -16 4 -34 8
-40 10 -10 3 -105 22 -140 29 -83 16 -219 37 -265 41 -30 3 -73 7 -95 10 -49
6 -501 14 -506 10z m477 -140 c45 -4 94 -9 110 -12 16 -2 54 -6 84 -9 30 -3
62 -8 70 -12 8 -3 26 -7 40 -8 34 -4 91 -15 112 -21 9 -3 26 -7 37 -9 12 -2
49 -11 84 -20 34 -9 71 -18 83 -21 24 -4 256 -81 293 -96 14 -6 29 -12 34 -13
4 -2 9 -4 12 -5 3 -1 8 -3 13 -4 20 -5 133 -58 272 -128 169 -85 213 -109 218
-120 2 -5 8 -8 14 -8 6 0 29 -13 52 -28 22 -15 48 -31 56 -34 8 -3 53 -33 100
-67 47 -33 106 -75 132 -93 26 -18 47 -36 48 -40 0 -5 7 -8 15 -8 8 0 15 -4
15 -8 0 -4 24 -26 52 -47 29 -22 60 -47 68 -55 9 -8 47 -42 86 -75 105 -92
330 -321 429 -437 70 -84 100 -120 146 -178 28 -36 57 -73 64 -82 8 -10 27
-37 42 -60 27 -42 38 -56 58 -81 6 -7 41 -59 79 -117 37 -58 77 -117 87 -132
11 -15 19 -32 19 -38 0 -5 5 -10 11 -10 5 0 7 -4 4 -10 -3 -5 -1 -10 4 -10 6
0 11 -4 11 -9 0 -5 21 -45 47 -88 50 -84 214 -404 252 -493 13 -30 35 -78 48
-107 12 -28 23 -55 23 -60 0 -4 6 -19 13 -33 8 -14 18 -39 25 -55 6 -17 22
-61 37 -100 15 -38 28 -78 30 -89 2 -10 9 -23 14 -30 5 -6 9 -13 9 -16 -1 -10
26 -95 32 -105 12 -17 21 -65 12 -65 -8 0 -23 16 -66 75 -17 22 -33 42 -37 45
-3 3 -28 59 -53 125 -26 66 -51 129 -56 140 -5 11 -30 70 -56 130 -58 139
-146 318 -224 460 -34 61 -63 118 -67 128 -3 9 -9 17 -14 17 -5 0 -9 5 -9 11
0 6 -18 38 -40 71 -22 33 -40 62 -40 64 0 8 -177 268 -199 293 -11 13 -21 27
-21 31 0 4 -10 18 -22 32 -13 14 -50 60 -82 102 -33 43 -67 86 -76 96 -9 11
-39 45 -66 77 -122 142 -407 417 -544 525 -30 23 -57 45 -60 48 -3 3 -32 25
-65 49 -33 25 -77 57 -97 73 -20 15 -39 28 -42 28 -3 0 -33 20 -68 44 -36 24
-102 65 -149 91 -46 27 -92 55 -101 63 -10 8 -18 12 -18 8 0 -4 -13 2 -30 14
-16 12 -30 18 -30 13 0 -4 -4 -3 -8 2 -9 13 -202 103 -337 157 -60 24 -289 99
-298 97 -1 0 -14 4 -30 10 -15 6 -38 13 -50 15 -12 3 -56 12 -97 21 -41 10
-84 19 -95 20 -11 2 -31 6 -45 10 -14 3 -43 7 -65 10 -82 11 -130 17 -148 21
-125 23 -540 23 -727 0 -14 -2 -50 -6 -80 -10 -30 -4 -62 -9 -70 -11 -8 -2
-33 -7 -55 -10 -23 -3 -51 -8 -63 -10 -12 -3 -32 -7 -44 -10 -62 -13 -165 -37
-178 -42 -8 -4 -25 -8 -37 -10 -101 -17 -598 -218 -662 -267 -7 -5 -18 -11
-25 -12 -15 -2 -250 -143 -315 -188 -28 -20 -55 -36 -61 -36 -5 0 -10 -4 -10
-8 0 -4 -13 -15 -29 -25 -17 -10 -40 -26 -53 -37 -13 -10 -70 -56 -128 -102
-97 -77 -124 -100 -199 -167 -107 -96 -295 -289 -381 -391 -30 -36 -62 -73
-71 -82 -20 -20 -279 -364 -279 -371 0 -2 -28 -47 -62 -99 -72 -107 -68 -102
-161 -263 -83 -145 -202 -380 -247 -490 -19 -44 -38 -83 -43 -86 -5 -3 -7 -8
-6 -10 1 -2 -3 -20 -10 -39 -6 -19 -12 -36 -11 -37 1 -8 -83 -159 -95 -173 -8
-8 -31 -35 -50 -58 -43 -54 -47 -32 -11 51 14 30 22 58 19 61 -4 3 -2 6 4 6 5
0 10 6 10 13 1 12 43 127 68 182 7 17 37 84 65 150 81 186 192 401 318 615 93
158 332 502 413 595 10 11 44 52 76 90 99 120 336 366 449 465 100 88 167 142
269 218 61 45 115 85 120 90 34 25 165 112 170 112 2 0 29 15 58 34 122 78
407 222 430 218 4 -1 7 3 7 10 0 6 3 8 6 5 4 -4 19 0 33 8 55 31 394 145 480
161 7 1 35 8 61 14 26 6 54 13 61 14 8 2 32 7 54 11 22 5 49 10 60 11 11 1 20
3 20 4 0 1 29 6 105 15 102 14 117 15 173 18 31 2 59 6 61 8 7 7 395 3 482 -5z
m-11 -190 c122 -10 156 -14 245 -30 14 -3 41 -7 60 -10 19 -3 45 -8 58 -11 55
-13 69 -16 97 -21 47 -8 179 -45 310 -88 119 -38 518 -213 535 -235 3 -3 21
-14 40 -23 56 -27 115 -62 118 -70 2 -5 8 -8 13 -8 28 0 324 -212 479 -344
200 -169 472 -446 559 -569 8 -12 22 -28 30 -37 92 -98 317 -426 447 -651 156
-272 357 -699 327 -699 -4 0 -37 34 -73 75 -79 91 -363 371 -445 440 -33 27
-62 52 -65 55 -3 3 -27 24 -55 45 -27 22 -52 42 -55 45 -4 5 -99 78 -145 113
-85 63 -147 107 -154 107 -4 0 -16 9 -26 20 -10 11 -23 20 -30 20 -7 0 -20 9
-30 20 -10 11 -23 20 -29 20 -6 0 -29 14 -50 30 -22 17 -46 30 -53 30 -7 0
-13 5 -13 10 0 6 -4 10 -10 10 -5 0 -40 19 -77 41 -66 41 -413 219 -426 219
-4 0 -30 11 -59 24 -29 13 -84 36 -123 50 -38 15 -79 31 -90 36 -58 26 -352
121 -382 123 -7 0 -13 4 -13 8 0 5 -7 6 -15 3 -8 -4 -22 -1 -30 6 -8 7 -15 10
-15 7 0 -3 -15 -1 -32 5 -18 5 -42 11 -53 13 -11 1 -38 8 -60 13 -76 21 -340
67 -435 77 -36 4 -73 9 -83 11 -122 23 -811 23 -967 0 -19 -3 -73 -10 -120
-16 -115 -14 -365 -60 -462 -85 -10 -3 -26 -7 -36 -9 -9 -2 -37 -10 -62 -17
-25 -7 -52 -14 -60 -15 -54 -6 -446 -147 -608 -218 -98 -44 -322 -153 -377
-185 -16 -10 -57 -32 -90 -50 -33 -18 -63 -37 -66 -43 -3 -5 -10 -10 -15 -11
-29 -3 -315 -196 -471 -318 -209 -164 -276 -223 -487 -431 -88 -87 -162 -156
-164 -153 -2 2 3 23 12 46 27 66 200 414 209 417 4 2 7 7 7 12 0 7 77 144 112
198 10 15 25 40 33 55 53 94 346 504 384 537 3 3 21 23 39 45 135 162 373 400
516 517 12 10 27 23 35 29 14 13 111 89 162 129 44 34 197 139 234 160 17 10
71 43 121 73 50 31 127 73 170 94 44 21 81 40 84 43 3 3 23 13 45 22 22 9 85
35 140 58 148 63 447 157 550 174 11 2 34 6 50 9 17 4 44 9 60 11 17 3 41 8
55 11 25 5 91 14 160 21 19 2 73 7 120 10 47 3 86 7 87 8 5 4 338 -3 408 -8z
m-5 -1170 c125 -8 171 -12 225 -20 22 -3 61 -8 87 -11 56 -6 114 -14 148 -21
14 -3 35 -7 47 -9 12 -2 36 -6 55 -11 32 -7 53 -11 108 -20 25 -4 253 -61 258
-65 1 -1 7 -3 12 -4 6 -1 12 -4 15 -5 3 -1 8 -3 13 -4 100 -24 436 -145 478
-173 13 -8 24 -12 24 -8 0 4 7 1 17 -6 9 -8 18 -13 19 -12 11 7 383 -177 422
-208 14 -10 29 -19 34 -19 33 0 458 -286 619 -417 193 -157 496 -447 640 -613
142 -163 192 -229 216 -280 20 -43 83 -234 109 -330 33 -125 104 -407 108
-432 3 -18 10 -55 16 -83 24 -113 56 -316 65 -410 2 -22 5 -40 5 -40 3 0 8
-39 15 -111 19 -212 27 -332 29 -421 0 -46 3 -83 6 -83 3 0 4 -66 4 -148 -2
-241 -9 -452 -14 -452 -3 0 -5 -30 -6 -68 -1 -65 -9 -184 -19 -267 -3 -22 -7
-62 -10 -90 -5 -61 -11 -101 -31 -225 -8 -52 -17 -110 -20 -129 -3 -18 -8 -43
-10 -55 -3 -11 -12 -57 -20 -101 -9 -44 -31 -145 -51 -225 -19 -80 -36 -153
-38 -163 -2 -9 -7 -22 -10 -27 -4 -6 -9 -23 -12 -38 -3 -15 -6 -31 -7 -37 -3
-16 -47 -159 -54 -175 -3 -8 -7 -22 -8 -30 -3 -18 -81 -237 -95 -265 -6 -12
-11 -27 -13 -35 -2 -8 -8 -26 -13 -40 -6 -14 -20 -47 -31 -75 -11 -27 -28 -68
-38 -90 -10 -22 -17 -43 -16 -47 1 -5 -3 -8 -10 -8 -6 0 -8 -3 -5 -6 4 -4 0
-19 -8 -33 -8 -14 -47 -94 -88 -176 -75 -152 -133 -261 -172 -325 -12 -19 -24
-42 -28 -50 -4 -8 -34 -57 -67 -109 -33 -51 -60 -97 -60 -101 0 -5 -4 -10 -8
-12 -5 -1 -28 -32 -52 -68 -24 -36 -46 -67 -49 -70 -3 -3 -22 -27 -40 -55 -40
-57 -198 -257 -257 -325 -128 -146 -321 -338 -454 -450 -136 -116 -370 -290
-389 -290 -5 0 -11 -4 -13 -8 -6 -17 -264 -165 -403 -232 -235 -114 -428 -184
-673 -244 -146 -36 -194 -46 -252 -51 -19 -2 -35 -4 -35 -5 0 -5 -104 -18
-210 -27 -101 -9 -415 -8 -520 1 -113 10 -150 14 -150 16 0 1 -16 3 -35 5 -78
9 -183 27 -225 39 -5 2 -28 6 -50 10 -112 22 -408 118 -540 176 -518 227 -942
532 -1350 972 -80 86 -90 98 -187 216 -92 113 -278 365 -278 377 0 8 -65 100
-72 103 -5 2 -8 7 -8 12 0 5 -22 44 -49 88 -112 182 -322 594 -334 655 -1 6
-4 14 -7 17 -3 3 -14 25 -24 50 -10 25 -22 54 -27 65 -33 78 -135 357 -154
425 -8 25 -23 77 -35 115 -11 39 -23 78 -25 89 -7 30 -35 130 -42 146 -3 8 -5
19 -4 23 0 4 -7 42 -18 85 -18 69 -53 236 -65 302 -2 14 -7 36 -10 50 -3 14
-8 41 -11 60 -2 19 -11 80 -20 135 -20 138 -27 192 -31 250 -1 28 -4 50 -5 50
-4 0 -19 195 -23 306 -1 47 -5 90 -7 95 -6 11 -2 490 5 624 8 165 16 269 32
410 4 30 7 64 8 75 1 11 4 25 7 30 3 6 5 25 4 43 -1 17 3 32 7 32 5 0 7 4 3
10 -5 7 19 167 40 270 12 58 16 77 21 110 3 19 8 38 10 41 2 3 6 21 9 40 41
239 232 853 276 889 3 3 8 10 10 16 12 36 406 441 543 559 38 33 74 65 80 70
6 6 31 26 56 45 25 19 47 37 50 40 6 8 209 160 240 180 12 8 32 22 44 31 30
23 246 159 251 159 3 0 29 16 59 35 30 19 57 35 60 35 3 0 47 23 98 50 89 49
366 179 391 184 6 2 35 13 62 25 58 26 417 148 457 155 15 2 31 7 36 10 5 3
19 7 33 9 13 3 56 12 94 21 88 21 114 27 145 32 14 2 36 7 50 10 40 9 249 42
315 50 98 11 115 12 240 20 66 3 121 7 122 8 5 4 349 -2 443 -8z m-4054 -1978
c-1 -7 -5 -19 -10 -26 -4 -7 -5 -16 -2 -19 3 -3 1 -14 -5 -25 -6 -11 -13 -32
-15 -46 -3 -15 -9 -31 -15 -38 -5 -6 -7 -13 -4 -16 3 -2 -4 -34 -16 -69 -12
-35 -23 -71 -25 -79 -2 -8 -19 -78 -39 -155 -19 -77 -38 -153 -41 -170 -3 -16
-9 -48 -14 -70 -8 -38 -13 -63 -25 -137 -3 -18 -8 -40 -10 -48 -2 -8 -7 -33
-10 -55 -3 -23 -8 -52 -10 -65 -3 -14 -8 -45 -11 -70 -3 -25 -7 -60 -10 -77
-2 -18 -6 -48 -8 -65 -9 -63 -16 -134 -22 -208 -3 -41 -7 -97 -10 -125 -16
-195 -22 -661 -10 -850 12 -184 27 -355 41 -465 2 -19 7 -57 11 -85 7 -60 12
-90 14 -90 1 0 3 -13 4 -30 4 -38 16 -115 21 -135 2 -8 7 -35 10 -60 4 -24 8
-47 10 -50 2 -3 6 -23 9 -45 4 -22 8 -47 11 -55 2 -8 7 -27 10 -42 3 -16 8
-40 11 -55 8 -41 64 -263 74 -298 9 -30 41 -134 75 -250 10 -33 21 -64 26 -70
4 -5 8 -14 8 -20 1 -13 20 -75 31 -100 5 -11 21 -54 35 -95 30 -80 41 -108 74
-182 11 -26 21 -50 21 -53 0 -16 246 -523 259 -535 6 -5 17 -24 56 -95 37 -68
93 -157 112 -177 10 -11 17 -22 15 -24 -2 -4 82 -134 110 -169 4 -5 43 -58 86
-116 90 -122 75 -103 194 -244 153 -182 373 -403 507 -511 13 -10 31 -26 40
-35 25 -25 263 -204 291 -219 13 -7 30 -18 37 -24 40 -33 24 -23 193 -123 126
-74 298 -162 318 -163 6 0 12 -4 12 -10 0 -5 6 -10 13 -10 6 0 54 -18 105 -40
124 -54 402 -146 462 -154 9 -1 21 -5 28 -10 6 -4 16 -5 21 -1 5 3 12 1 16 -4
3 -5 13 -9 23 -9 9 0 28 -2 42 -5 63 -15 78 -18 115 -23 22 -4 49 -8 60 -9 11
-2 20 -4 20 -5 0 -1 16 -3 35 -5 19 -2 51 -6 70 -8 168 -21 441 -27 625 -13
102 8 150 13 150 16 0 1 17 3 38 5 21 2 53 6 70 9 18 3 48 8 67 12 34 6 43 7
105 19 17 3 36 7 43 7 6 1 12 5 12 10 0 5 4 7 8 4 8 -5 147 27 182 41 8 3 20
7 25 8 29 7 261 89 270 95 6 4 21 11 35 15 38 12 144 60 265 122 61 31 120 61
132 67 13 6 23 14 23 19 0 4 6 7 13 7 6 0 39 18 72 40 33 22 65 40 71 40 7 0
14 4 16 8 2 4 48 38 102 76 153 106 347 262 468 377 26 26 48 45 48 44 0 -1
39 38 88 88 48 50 92 96 98 102 15 14 152 172 194 224 19 23 40 48 45 54 21
24 153 204 188 257 20 30 41 60 47 67 6 7 15 24 22 38 6 14 14 25 18 25 4 0
13 13 20 30 7 16 16 30 21 30 5 0 9 4 9 10 0 5 15 33 34 62 55 87 124 213 217
396 48 95 87 174 87 175 1 6 23 59 50 117 62 136 194 489 208 555 2 11 8 31
13 45 33 88 142 505 156 595 1 11 12 67 24 125 12 58 23 123 26 145 2 22 7 51
9 65 5 26 12 71 22 150 3 25 7 55 9 68 5 29 15 132 20 197 2 28 4 50 5 50 1 0
6 76 15 245 5 90 9 555 5 555 -1 0 -3 38 -5 85 -5 122 -13 250 -19 301 -11 89
-19 165 -20 201 0 21 -3 38 -6 38 -3 0 -6 12 -6 28 -2 40 -15 130 -28 197 -2
11 -9 54 -16 95 -6 41 -16 91 -20 110 -5 19 -11 46 -14 60 -2 14 -9 45 -15 70
-5 25 -12 59 -15 75 -5 27 -15 65 -46 184 -5 19 -7 39 -4 43 3 4 1 8 -4 8 -5
0 -12 12 -15 28 -2 15 -14 59 -24 99 -13 44 -16 70 -9 67 6 -2 33 -39 60 -80
46 -70 81 -167 101 -276 3 -15 9 -37 13 -50 5 -13 8 -30 7 -38 -1 -8 3 -21 8
-28 6 -7 7 -15 4 -18 -3 -3 -1 -18 4 -32 5 -14 12 -46 15 -71 3 -25 8 -49 10
-53 3 -4 7 -25 10 -45 2 -21 6 -45 8 -53 5 -24 16 -90 27 -155 9 -60 14 -95
25 -193 3 -29 7 -61 9 -70 7 -41 20 -188 31 -382 14 -235 8 -853 -10 -945 -2
-11 -7 -51 -10 -90 -4 -38 -9 -88 -12 -110 -2 -22 -6 -60 -9 -85 -4 -48 -15
-132 -20 -165 -2 -11 -6 -40 -10 -65 -3 -25 -10 -67 -16 -95 -5 -27 -12 -66
-15 -85 -2 -19 -7 -46 -11 -60 -3 -14 -7 -34 -9 -45 -1 -11 -8 -42 -14 -70 -6
-27 -13 -59 -16 -70 -2 -11 -8 -41 -14 -66 -6 -26 -13 -55 -15 -65 -2 -11 -4
-19 -5 -19 -1 0 -3 -11 -6 -24 -17 -90 -194 -661 -214 -686 -4 -5 -13 -28 -20
-50 -12 -39 -17 -50 -59 -147 -12 -26 -21 -50 -21 -53 0 -4 -11 -29 -24 -55
-13 -27 -22 -50 -20 -53 2 -2 -2 -10 -11 -17 -8 -7 -15 -17 -15 -22 0 -5 -10
-30 -22 -56 -12 -26 -22 -49 -23 -52 0 -3 -38 -77 -84 -164 -91 -175 -223
-397 -307 -519 -30 -43 -54 -82 -54 -87 0 -5 -4 -10 -8 -12 -4 -2 -23 -25 -42
-53 -19 -27 -38 -52 -41 -55 -3 -3 -24 -31 -47 -62 -173 -236 -508 -583 -747
-775 -33 -26 -65 -52 -71 -58 -6 -5 -22 -17 -34 -25 -12 -8 -28 -20 -34 -26
-25 -24 -265 -183 -356 -236 -182 -107 -481 -252 -486 -236 0 2 -7 -2 -15 -8
-15 -12 -91 -39 -98 -35 -2 2 -7 -2 -10 -8 -4 -6 -16 -12 -26 -14 -11 -2 -27
-7 -35 -10 -15 -6 -211 -65 -242 -73 -10 -2 -26 -6 -35 -8 -54 -14 -205 -45
-246 -51 -27 -3 -59 -8 -70 -11 -35 -7 -117 -16 -173 -19 -29 -1 -56 -5 -60
-8 -11 -6 -486 -6 -498 1 -5 2 -35 6 -68 8 -33 2 -77 6 -97 9 -20 4 -52 8 -71
11 -19 2 -44 6 -55 8 -11 2 -65 14 -120 26 -133 28 -122 26 -190 45 -33 9 -73
20 -90 24 -16 5 -42 14 -57 20 -16 6 -28 8 -28 6 0 -3 -24 6 -52 18 -29 13
-57 24 -61 25 -16 1 -153 55 -164 65 -7 5 -13 7 -13 4 0 -8 -286 135 -373 187
-43 25 -80 46 -82 46 -4 0 -180 116 -200 132 -5 4 -55 41 -110 81 -55 41 -110
83 -122 93 -12 10 -41 35 -64 54 -105 86 -236 208 -338 314 -110 114 -111 115
-171 186 -30 36 -57 67 -60 70 -18 18 -99 121 -169 215 -44 61 -84 115 -89
120 -4 6 -45 66 -90 135 -45 69 -87 130 -92 137 -6 7 -10 16 -10 20 0 5 -11
24 -23 43 -81 120 -266 484 -363 714 -77 180 -98 236 -161 426 -30 91 -57 172
-60 180 -7 17 -9 26 -17 55 -3 11 -12 45 -21 75 -21 74 -21 74 -45 165 -12 44
-23 91 -26 105 -3 14 -9 41 -14 60 -5 19 -12 47 -15 63 -3 15 -7 38 -10 52 -3
14 -7 35 -9 48 -3 12 -10 47 -16 77 -6 30 -13 66 -15 80 -2 14 -7 40 -10 58
-6 36 -12 78 -20 137 -3 22 -7 50 -10 63 -2 13 -7 50 -10 83 -4 33 -8 69 -10
79 -2 11 -7 59 -10 107 -4 49 -9 104 -11 123 -26 270 -26 846 1 1120 2 19 6
67 10 105 3 39 8 84 10 100 10 88 14 125 20 170 8 62 34 231 41 265 3 14 6 34
8 45 4 21 26 140 31 165 2 8 4 15 5 15 1 0 3 12 5 27 2 16 6 37 10 47 6 20 12
47 21 91 34 176 127 430 156 430 4 0 8 5 8 11 0 10 37 49 46 49 1 0 1 -6 0
-12z"/>
<path d="M5348 9483 c-63 -50 -181 -231 -226 -348 -7 -16 -16 -37 -21 -45 -5
-8 -22 -42 -36 -75 -84 -184 -128 -280 -169 -368 -25 -55 -46 -100 -46 -102 0
-2 -22 -52 -50 -110 -27 -58 -50 -108 -50 -110 0 -2 -18 -43 -40 -90 -22 -47
-40 -88 -40 -90 0 -2 -18 -43 -40 -90 -22 -47 -40 -88 -40 -90 0 -3 -16 -36
-35 -76 -19 -39 -37 -80 -41 -92 -4 -12 -27 -64 -50 -115 -24 -50 -44 -94 -44
-96 0 -2 -15 -37 -34 -78 -19 -40 -57 -125 -86 -188 -29 -63 -68 -149 -88
-190 -20 -41 -37 -77 -37 -80 -2 -12 -163 -323 -235 -455 -19 -33 -42 -76 -52
-95 -11 -19 -30 -53 -43 -75 -14 -22 -30 -51 -37 -65 -7 -14 -15 -27 -18 -30
-11 -11 -40 -60 -35 -60 3 0 1 -6 -5 -12 -6 -7 -55 -80 -109 -163 -107 -163
-234 -336 -321 -436 -69 -79 -279 -289 -290 -289 -5 0 -15 -6 -22 -13 -59 -58
-326 -198 -423 -222 -5 -1 -17 -5 -25 -8 -8 -3 -28 -9 -45 -13 -16 -4 -32 -8
-35 -9 -54 -16 -98 -27 -123 -30 -18 -2 -48 -7 -67 -11 -40 -8 -199 -8 -280
-1 -83 7 -110 -18 -140 -134 -18 -71 -12 -90 37 -104 23 -7 44 -10 47 -8 2 3
35 6 73 8 37 2 79 6 93 9 14 4 40 8 59 11 59 8 222 62 331 111 58 25 111 46
118 47 6 0 12 3 12 6 0 3 27 17 60 31 33 14 60 28 60 33 0 4 6 7 14 7 26 0
290 158 308 185 4 5 8 7 8 3 0 -4 10 2 23 13 12 11 49 41 82 67 81 63 293 262
279 262 -2 0 10 15 26 33 54 60 80 92 80 100 0 5 4 6 9 3 5 -3 11 0 14 8 3 8
44 65 90 127 93 126 237 343 237 358 0 5 3 11 8 13 4 2 36 51 71 110 35 59 70
109 76 112 29 11 293 -240 455 -433 25 -29 55 -65 68 -80 26 -30 154 -198 191
-251 106 -152 110 -159 106 -206 -4 -45 -26 -91 -67 -135 -284 -308 -471 -634
-503 -874 -29 -220 36 -463 185 -697 68 -107 109 -143 165 -142 78 0 104 40
173 269 27 89 58 202 67 245 2 8 4 15 5 15 1 0 3 11 6 25 2 14 7 36 10 50 4
14 8 32 9 40 1 8 7 35 13 60 6 25 13 59 16 75 3 17 8 41 11 55 27 130 74 385
91 485 7 45 25 147 30 175 2 14 7 48 10 75 3 28 8 53 10 56 1 3 6 34 10 70 3
35 10 71 15 80 4 9 6 19 2 22 -3 4 2 28 12 54 17 49 105 142 255 273 35 30 68
60 74 65 6 6 40 34 76 63 36 29 71 57 78 63 7 5 16 8 21 4 9 -5 7 -75 -5 -145
-3 -19 -7 -65 -7 -102 -1 -38 -4 -68 -7 -68 -10 0 3 -343 15 -400 3 -14 8 -45
11 -70 4 -43 29 -149 41 -180 3 -8 7 -24 8 -36 5 -33 75 -214 108 -279 97
-187 270 -386 387 -445 144 -73 313 -115 348 -87 15 12 16 27 2 27 -6 0 -23 8
-38 19 -15 10 -56 37 -92 61 -67 43 -240 214 -240 236 0 7 -3 14 -8 16 -13 5
-72 91 -72 104 0 7 -3 14 -8 16 -10 4 -92 183 -92 200 0 8 -4 18 -9 23 -6 6
-12 21 -15 35 -3 14 -15 57 -26 95 -11 39 -23 86 -26 105 -3 19 -8 44 -11 55
-3 11 -7 34 -9 50 -2 17 -5 50 -9 75 -14 110 -16 153 -16 280 1 219 13 336 56
555 27 140 127 461 181 580 9 22 19 45 20 52 4 23 143 299 189 378 124 210
297 418 450 540 28 22 52 42 55 45 13 15 130 87 194 120 389 203 786 208 1035
15 50 -39 158 -151 194 -201 40 -56 141 -244 131 -244 -4 0 -2 -6 4 -13 13
-15 75 -219 91 -297 18 -89 21 -103 27 -150 3 -25 7 -56 10 -70 22 -136 22
-518 -1 -650 -2 -14 -7 -47 -10 -75 -3 -27 -7 -61 -10 -75 -3 -14 -8 -38 -11
-55 -16 -91 -59 -269 -86 -353 -17 -53 -31 -103 -31 -109 0 -7 -4 -13 -9 -13
-4 0 -7 -3 -6 -7 1 -5 -4 -24 -11 -43 -8 -19 -14 -37 -15 -40 -11 -48 -133
-302 -194 -402 -21 -35 -41 -72 -45 -81 -3 -9 -11 -17 -17 -17 -5 0 -10 -5
-10 -11 0 -30 -177 -249 -294 -364 -114 -112 -173 -159 -181 -145 -6 9 -2 61
10 110 3 14 7 36 10 50 3 14 7 35 9 47 3 11 8 43 12 70 9 54 11 62 14 66 1 1
3 11 4 22 8 55 18 110 21 115 2 3 6 21 9 40 3 19 8 46 11 60 3 14 8 36 11 50
3 14 19 86 35 160 17 74 32 142 34 150 1 8 17 79 34 157 34 155 34 203 0 239
-21 22 -81 42 -104 35 -5 -2 -14 -4 -20 -5 -5 -1 -16 -5 -22 -9 -7 -5 -13 -6
-13 -2 0 3 -23 -6 -50 -20 -46 -23 -154 -121 -205 -185 -24 -30 -105 -149
-105 -154 0 -2 -24 -46 -53 -97 -28 -52 -59 -107 -67 -124 -8 -16 -19 -33 -25
-37 -5 -4 -6 -8 -1 -8 5 0 4 -6 -2 -13 -24 -28 -442 -879 -442 -898 0 -5 -4
-9 -10 -9 -5 0 -10 -9 -10 -20 0 -11 -5 -20 -12 -20 -6 0 -9 -3 -5 -6 9 -10
-20 -61 -44 -78 -12 -8 -30 -13 -40 -11 -10 2 -19 1 -19 -3 0 -4 -8 -8 -17 -8
-10 -1 -34 -4 -53 -8 -19 -3 -47 -8 -62 -11 -14 -2 -66 -13 -115 -25 -48 -12
-98 -24 -110 -26 -83 -16 -477 -157 -601 -215 -35 -16 -67 -29 -72 -29 -6 0
-10 -5 -10 -12 0 -6 -3 -8 -7 -5 -5 6 -57 -20 -313 -155 -19 -10 -73 -42 -120
-71 -47 -29 -96 -59 -110 -67 -14 -8 -27 -17 -30 -20 -3 -3 -41 -30 -85 -59
-283 -190 -571 -463 -770 -731 -16 -22 -36 -47 -42 -55 -7 -7 -13 -16 -13 -20
0 -3 -11 -21 -24 -38 -24 -31 -109 -176 -133 -227 -123 -255 -145 -525 -61
-731 58 -140 154 -263 261 -334 49 -32 158 -79 209 -89 13 -3 45 -9 73 -14 54
-11 276 -9 294 2 6 4 27 9 45 12 117 14 341 105 481 196 171 110 435 355 540
502 11 16 27 36 35 45 9 9 29 36 45 61 17 25 32 47 35 50 14 13 100 151 100
160 0 6 7 13 15 16 8 4 13 10 10 14 -3 5 0 15 7 22 31 33 230 428 292 578 26
63 54 129 62 147 8 17 14 34 14 37 0 3 11 29 24 58 13 29 30 72 37 96 6 23 16
42 21 42 5 0 8 6 7 13 -1 6 3 23 9 37 27 59 152 379 152 388 0 6 7 23 15 39 8
15 40 93 71 173 30 80 63 153 72 162 18 18 62 26 172 33 36 2 76 6 90 9 14 3
41 7 60 10 19 3 58 10 87 15 121 24 141 24 147 3 7 -20 3 -50 -15 -130 -5 -23
-12 -59 -15 -80 -3 -20 -8 -40 -10 -43 -4 -7 -45 -202 -48 -234 -2 -11 -6 -36
-9 -55 -10 -52 -16 -90 -23 -140 -3 -25 -7 -56 -9 -69 -18 -110 -25 -378 -13
-491 4 -30 7 -55 8 -55 0 0 3 -17 5 -38 7 -65 53 -200 84 -248 17 -25 47 -61
68 -80 37 -33 143 -96 143 -84 0 3 9 1 21 -5 30 -17 167 -19 211 -4 20 7 39
10 42 7 3 -4 6 -1 6 5 0 7 7 12 16 12 26 0 106 59 175 130 103 107 166 245
121 269 -21 11 -31 -1 -69 -81 -12 -26 -28 -55 -35 -64 -31 -40 -111 -114
-123 -114 -7 0 -15 -4 -17 -8 -1 -5 -30 -18 -63 -28 -114 -36 -188 -4 -243
108 -17 34 -33 74 -36 88 -2 14 -10 50 -16 80 -38 191 -28 575 25 980 3 19 7
60 11 90 3 30 9 60 12 65 4 6 5 17 4 26 -4 27 38 282 49 295 6 7 54 42 107 78
53 35 107 72 119 83 12 10 41 34 65 53 71 58 270 260 335 340 71 88 173 236
230 335 78 136 193 373 193 399 0 6 4 16 9 22 5 5 11 18 13 29 1 11 5 22 9 25
11 11 104 315 115 380 3 14 7 32 9 40 2 8 7 31 10 50 3 19 8 46 10 60 11 54
13 67 19 130 4 36 9 83 12 105 8 54 8 300 0 361 -3 27 -8 74 -11 104 -7 64
-14 109 -20 130 -2 8 -7 31 -10 50 -36 214 -155 504 -276 677 -94 133 -313
343 -358 343 -6 0 -11 4 -11 8 0 11 -165 91 -200 98 -16 3 -67 16 -80 21 -59
22 -257 32 -365 18 -33 -5 -67 -9 -75 -10 -9 0 -21 -4 -28 -9 -6 -4 -12 -5
-12 -3 0 3 -31 -3 -70 -13 -38 -10 -70 -16 -70 -13 0 3 -6 0 -14 -6 -8 -7 -27
-14 -42 -17 -16 -3 -33 -9 -39 -14 -5 -4 -13 -9 -17 -10 -38 -9 -60 -18 -136
-57 -84 -43 -254 -151 -298 -190 -12 -10 -41 -34 -65 -54 -37 -31 -159 -152
-209 -209 -13 -14 -63 -76 -92 -115 -4 -5 -18 -23 -31 -40 -13 -16 -44 -59
-68 -95 -24 -36 -46 -67 -50 -70 -3 -3 -9 -15 -13 -27 -4 -13 -11 -23 -15 -23
-5 0 -14 -13 -21 -30 -7 -16 -17 -30 -23 -30 -6 0 -7 -3 -4 -7 4 -3 2 -12 -4
-20 -32 -37 -211 -395 -223 -443 -2 -8 -57 -153 -66 -175 -9 -21 -50 -158 -55
-185 -2 -8 -4 -16 -5 -17 -2 -2 -3 -7 -4 -11 -4 -31 -47 -84 -99 -124 -34 -26
-71 -55 -82 -65 -11 -10 -61 -52 -110 -93 -49 -41 -112 -95 -138 -120 -27 -25
-61 -53 -77 -63 l-29 -19 2 39 c1 21 6 43 9 49 4 5 5 19 4 30 -2 10 1 30 6 44
5 14 11 42 13 63 2 21 9 63 14 95 6 31 13 72 16 90 28 174 59 355 70 412 3 19
7 44 9 55 3 20 63 47 131 59 82 15 135 45 135 77 0 21 -57 44 -75 29 -6 -5
-15 -7 -18 -4 -3 3 -11 2 -18 -2 -14 -9 -58 -16 -104 -18 -27 -1 -30 2 -30 29
-1 17 3 46 7 66 4 20 10 62 14 94 3 32 8 68 10 79 5 22 8 47 19 140 4 33 9 69
11 80 6 29 16 105 19 141 1 17 3 30 5 30 1 0 3 16 5 35 6 77 9 100 15 100 3 0
5 15 6 33 0 37 9 113 29 250 5 37 7 54 20 152 9 67 12 89 20 162 4 35 8 75 10
90 2 16 6 57 10 93 3 36 8 84 11 106 22 195 21 738 -1 774 -2 3 -6 26 -10 50
-26 190 -134 295 -227 223z m18 -265 c8 -12 7 -274 -1 -338 -3 -19 -7 -66 -10
-105 -2 -38 -6 -83 -9 -100 -2 -16 -7 -59 -10 -95 -4 -36 -9 -76 -11 -90 -3
-14 -7 -50 -10 -80 -3 -30 -7 -71 -10 -90 -2 -19 -7 -55 -10 -80 -3 -25 -8
-61 -10 -80 -3 -19 -7 -57 -10 -85 -5 -49 -12 -105 -20 -155 -2 -14 -7 -56 -9
-93 -3 -37 -7 -71 -10 -75 -2 -4 -7 -34 -10 -68 -4 -33 -8 -71 -11 -85 -4 -27
-14 -104 -21 -164 -4 -37 -7 -63 -20 -140 -2 -16 -6 -48 -9 -70 -10 -91 -23
-190 -29 -220 -2 -11 -7 -45 -10 -75 -4 -30 -9 -71 -11 -90 -3 -19 -8 -53 -11
-75 -2 -22 -9 -44 -13 -48 -13 -13 -95 -30 -246 -52 -22 -4 -47 -8 -55 -10 -8
-2 -41 -7 -73 -10 -32 -4 -66 -8 -76 -10 -43 -8 -235 -19 -351 -19 -107 -1
-125 1 -128 15 -1 9 15 55 38 103 22 48 40 91 40 97 0 5 5 9 10 9 6 0 10 5 10
12 0 6 14 41 31 77 18 36 46 98 64 136 18 39 54 115 80 170 26 55 48 106 48
113 0 6 4 12 9 12 4 0 8 4 8 9 0 5 16 44 35 85 19 42 35 78 35 80 0 2 21 48
46 103 26 54 47 104 47 111 0 6 4 12 9 12 4 0 8 6 8 13 0 8 8 29 17 48 10 19
18 39 19 44 1 6 14 37 29 70 15 33 33 74 40 90 7 17 41 93 75 170 34 77 63
145 64 150 1 6 9 26 18 45 9 19 51 116 94 215 105 247 122 284 147 330 11 22
21 42 21 45 -1 12 70 159 98 203 30 47 50 58 64 35z m-305 -2639 c22 -11 22
-16 -7 -203 -8 -55 -17 -114 -20 -131 -2 -16 -6 -46 -9 -65 -15 -95 -25 -159
-31 -195 -4 -22 -8 -49 -10 -60 -1 -11 -3 -20 -4 -20 -1 0 -3 -11 -6 -25 -8
-49 -12 -75 -19 -115 -7 -42 -25 -72 -25 -42 0 9 -4 17 -8 17 -5 0 -15 12 -23
28 -65 125 -198 284 -465 553 -138 139 -162 168 -147 174 18 8 97 16 190 18
29 1 53 4 53 7 0 3 15 5 33 6 17 0 70 4 117 9 114 10 135 13 135 15 0 1 16 3
35 5 19 2 49 6 65 9 17 3 48 8 70 12 22 3 42 8 44 10 6 6 10 5 32 -7z m2697
-886 c12 -22 9 -39 -21 -133 -14 -41 -34 -109 -47 -150 -12 -41 -24 -82 -27
-90 -7 -17 -10 -26 -17 -55 -3 -11 -21 -72 -41 -135 -19 -63 -37 -124 -40
-135 -2 -11 -18 -67 -35 -125 -17 -58 -40 -139 -51 -180 -11 -41 -22 -83 -24
-92 -3 -10 -7 -26 -9 -35 -42 -170 -80 -301 -91 -313 -8 -9 -43 -24 -77 -34
-35 -10 -90 -27 -123 -38 -33 -10 -76 -21 -95 -24 -19 -3 -42 -7 -50 -10 -14
-5 -34 -8 -139 -19 -74 -7 -75 13 -6 160 23 50 50 111 60 138 10 26 22 47 28
47 6 0 8 3 5 6 -6 5 12 49 87 209 18 39 54 120 81 180 98 223 296 596 326 616
5 3 10 10 11 15 4 27 147 169 195 193 46 24 89 25 100 4z m-2904 -530 c-4 -49
-24 -190 -39 -283 -2 -14 -7 -45 -10 -70 -3 -25 -15 -100 -26 -168 -10 -68
-17 -128 -14 -133 4 -5 2 -9 -3 -9 -5 0 -9 -6 -9 -12 0 -18 -12 -99 -22 -156
-5 -26 -9 -54 -9 -62 0 -14 -3 -27 -19 -95 -3 -16 -7 -41 -8 -55 -2 -14 -4
-27 -5 -30 -2 -3 -4 -9 -5 -15 -4 -23 -38 -95 -44 -95 -16 0 -51 49 -74 105
-70 166 -88 342 -53 500 23 102 111 318 174 420 64 106 146 215 162 215 6 0 7
-24 4 -57z m1726 -1179 c0 -3 -17 -39 -37 -82 -21 -42 -38 -79 -38 -82 -1 -3
-26 -57 -57 -120 -31 -63 -85 -176 -121 -250 -35 -74 -96 -201 -136 -281 -39
-81 -71 -151 -71 -157 0 -6 -3 -12 -7 -14 -5 -1 -19 -25 -33 -53 -118 -238
-321 -556 -488 -765 -71 -88 -281 -306 -362 -375 -226 -193 -455 -324 -670
-385 -230 -64 -415 -31 -533 95 -49 52 -77 89 -77 103 0 6 -5 12 -11 12 -5 0
-8 4 -4 9 3 5 1 12 -4 15 -21 13 -53 148 -55 231 0 28 11 122 20 169 6 30 34
118 50 153 8 17 14 36 14 42 0 6 4 11 8 11 4 0 13 15 20 33 25 70 188 309 299
439 64 74 324 329 403 394 181 149 417 310 590 403 8 5 33 18 55 30 88 47 325
161 405 194 123 51 242 97 265 101 11 2 34 9 50 16 36 14 230 70 265 76 14 3
68 15 120 27 83 20 140 24 140 11z"/>
<path d="M1071 6616 c-8 -10 -59 -128 -65 -151 -3 -11 -13 -36 -41 -100 -9
-22 -19 -52 -21 -67 -4 -23 -1 -28 22 -34 20 -5 29 -2 38 12 24 41 133 320
129 330 -6 17 -51 24 -62 10z"/>
<path d="M862 6057 c-15 -18 -100 -310 -95 -324 3 -7 15 -13 28 -13 32 0 39
12 80 145 46 146 52 184 34 196 -20 12 -35 11 -47 -4z"/>
<path d="M716 5495 c-13 -13 -27 -65 -42 -151 -2 -16 -6 -40 -9 -54 -14 -77
-14 -88 0 -100 21 -18 65 12 66 45 1 14 2 28 3 33 13 51 17 74 32 167 3 22 7
44 7 48 4 18 -42 27 -57 12z"/>
</g>
</svg>
